<?xml version="1.0" encoding="UTF-8" standalone="no"?>
<svg
   width="256"
   height="256"
   version="1.1"
   id="svg1473"
   sodipodi:docname="logo_gruvbox.svg"
   inkscape:version="1.2.2 (b0a8486541, 2022-12-01)"
   xmlns:inkscape="http://www.inkscape.org/namespaces/inkscape"
   xmlns:sodipodi="http://sodipodi.sourceforge.net/DTD/sodipodi-0.dtd"
   xmlns="http://www.w3.org/2000/svg"
   xmlns:svg="http://www.w3.org/2000/svg">
  <sodipodi:namedview
     id="namedview1475"
     pagecolor="#ffffff"
     bordercolor="#000000"
     borderopacity="0.25"
     inkscape:showpageshadow="2"
     inkscape:pageopacity="0.0"
     inkscape:pagecheckerboard="0"
     inkscape:deskcolor="#d1d1d1"
     showgrid="false"
     inkscape:zoom="0.68268473"
     inkscape:cx="-99.60674"
     inkscape:cy="186.76264"
     inkscape:window-width="1920"
     inkscape:window-height="1121"
     inkscape:window-x="0"
     inkscape:window-y="45"
     inkscape:window-maximized="1"
     inkscape:current-layer="g538" />
  <defs
     id="defs1443">
    <linearGradient
       id="linearGradient31"
       x1=".5002"
       x2=".5002"
       y2="1"
       gradientTransform="matrix(244,0,0,228,5.986,12)"
       gradientUnits="userSpaceOnUse">
      <stop
         stop-color="#ebdbb2"
         stop-opacity=".2"
         offset="0"
         id="stop1298"
         style="stop-color:#cdb2eb;stop-opacity:0.2;" />
      <stop
         stop-color="#ebdbb2"
         stop-opacity=".05"
         offset="0.1"
         id="stop1300"
         style="stop-color:#cdb2eb;stop-opacity:0.2;" />
      <stop
         stop-opacity="0"
         offset=".7036"
         id="stop1302" />
      <stop
         stop-opacity=".1"
         offset=".8975"
         id="stop1304" />
      <stop
         stop-opacity=".2"
         offset="1"
         id="stop1306" />
    </linearGradient>
    <linearGradient
       id="linearGradient6"
       x1="140"
       x2="140"
       y1="12"
       y2="240"
       gradientUnits="userSpaceOnUse">
      <stop
         stop-color="#fb4934"
         offset="0"
         id="stop1309"
         style="stop-color:#b970ff;stop-opacity:1;" />
      <stop
         stop-color="#fabd2f"
         offset="1"
         id="stop1311"
         style="stop-color:#7c21ff;stop-opacity:1;" />
    </linearGradient>
    <linearGradient
       id="a"
       x1="70.79"
       x2="6.447"
       y1="12.39"
       y2="74.47"
       gradientTransform="translate(-1.3 -.004086)"
       gradientUnits="userSpaceOnUse">
      <stop
         stop-color="#fabd2f"
         offset=".048"
         id="stop1314" />
      <stop
         stop-color="#fabd2f"
         offset=".111"
         id="stop1316" />
      <stop
         stop-color="#fabd2f"
         offset=".225"
         id="stop1318" />
      <stop
         stop-color="#fabd2f"
         offset=".368"
         id="stop1320" />
      <stop
         stop-color="#fe8019"
         offset=".401"
         id="stop1322" />
      <stop
         stop-color="#d65d0e"
         offset=".462"
         id="stop1324" />
      <stop
         stop-color="#fb4934"
         offset=".534"
         id="stop1326" />
      <stop
         stop-color="#cc241d"
         offset=".705"
         id="stop1328" />
    </linearGradient>
    <radialGradient
       id="b"
       cx="-7907"
       cy="-8515"
       r="80.8"
       gradientTransform="translate(7974,8524)"
       gradientUnits="userSpaceOnUse">
      <stop
         stop-color="#fabd2f"
         offset=".129"
         id="stop1331" />
      <stop
         stop-color="#fabd2f"
         offset=".186"
         id="stop1333" />
      <stop
         stop-color="#fabd2f"
         offset=".247"
         id="stop1335" />
      <stop
         stop-color="#fabd2f"
         offset=".283"
         id="stop1337" />
      <stop
         stop-color="#fb4934"
         offset=".403"
         id="stop1339" />
      <stop
         stop-color="#fb4934"
         offset=".467"
         id="stop1341" />
      <stop
         stop-color="#cc241d"
         offset=".71"
         id="stop1343" />
      <stop
         stop-color="#cc241d"
         offset=".782"
         id="stop1345" />
      <stop
         stop-color="#cc241d"
         offset=".86"
         id="stop1347" />
    </radialGradient>
    <radialGradient
       id="e"
       cx="-7946"
       cy="-8461"
       r="38.47"
       gradientTransform="translate(7974,8524)"
       gradientUnits="userSpaceOnUse">
      <stop
         stop-color="#b16286"
         offset=".353"
         id="stop1350" />
      <stop
         stop-color="#b16286"
         offset=".472"
         id="stop1352" />
      <stop
         stop-color="#b16286"
         offset=".669"
         id="stop1354" />
      <stop
         stop-color="#8f3f71"
         offset="1"
         id="stop1356" />
    </radialGradient>
    <radialGradient
       id="f"
       cx="-7936"
       cy="-8492"
       r="20.4"
       gradientTransform="matrix(.972 -.235 .275 1.138 10090 7834)"
       gradientUnits="userSpaceOnUse">
      <stop
         stop-color="#b16286"
         stop-opacity="0"
         offset=".206"
         id="stop1359" />
      <stop
         stop-color="#b16286"
         stop-opacity=".06"
         offset=".278"
         id="stop1361" />
      <stop
         stop-color="#8f3f71"
         stop-opacity=".45"
         offset=".747"
         id="stop1363" />
      <stop
         stop-color="#8f3f71"
         stop-opacity=".6"
         offset=".975"
         id="stop1365" />
    </radialGradient>
    <radialGradient
       id="g"
       cx="-7938"
       cy="-8518"
       r="27.68"
       gradientTransform="matrix(2.081 0 0 2.081 16641 17779)"
       gradientUnits="userSpaceOnUse">
      <stop
         stop-color="#fabd2f"
         offset="0"
         id="stop1368" />
      <stop
         stop-color="#fabd2f"
         offset=".121"
         id="stop1370" />
      <stop
         stop-color="#fabd2f"
         offset=".295"
         id="stop1372" />
      <stop
         stop-color="#fe8019"
         offset=".502"
         id="stop1374" />
      <stop
         stop-color="#fe8019"
         offset=".6733"
         id="stop1376" />
      <stop
         stop-color="#d65d0e"
         offset=".8395"
         id="stop1378" />
    </radialGradient>
    <radialGradient
       id="h"
       cx="-7916"
       cy="-8536"
       r="118.1"
       gradientTransform="matrix(2.081 0 0 2.081 16641 17779)"
       gradientUnits="userSpaceOnUse">
      <stop
         stop-color="#fe8019"
         offset=".113"
         id="stop1381" />
      <stop
         stop-color="#fe8019"
         offset=".456"
         id="stop1383" />
      <stop
         stop-color="#fb4934"
         offset=".622"
         id="stop1385" />
      <stop
         stop-color="#fb4934"
         offset=".716"
         id="stop1387" />
      <stop
         stop-color="#cc241d"
         offset=".904"
         id="stop1389" />
    </radialGradient>
    <radialGradient
       id="i"
       cx="-7927"
       cy="-8523"
       r="86.5"
       gradientTransform="matrix(.105 .995 -.653 .069 -4685 8470)"
       gradientUnits="userSpaceOnUse">
      <stop
         stop-color="#fabd2f"
         offset="0"
         id="stop1392" />
      <stop
         stop-color="#fabd2f"
         offset=".06"
         id="stop1394" />
      <stop
         stop-color="#fabd2f"
         offset=".168"
         id="stop1396" />
      <stop
         stop-color="#fabd2f"
         offset=".304"
         id="stop1398" />
      <stop
         stop-color="#d79921"
         offset=".3616"
         id="stop1400" />
      <stop
         stop-color="#d79921"
         offset=".455"
         id="stop1402" />
      <stop
         stop-color="#d65d0e"
         offset=".57"
         id="stop1404" />
      <stop
         stop-color="#cc241d"
         offset=".737"
         id="stop1406" />
    </radialGradient>
    <radialGradient
       id="j"
       cx="-7938"
       cy="-8508"
       r="73.72"
       gradientTransform="translate(7974,8524)"
       gradientUnits="userSpaceOnUse">
      <stop
         stop-color="#fabd2f"
         offset=".137"
         id="stop1409" />
      <stop
         stop-color="#d79921"
         offset=".48"
         id="stop1411" />
      <stop
         stop-color="#fe8019"
         offset=".592"
         id="stop1413" />
      <stop
         stop-color="#d65d0e"
         offset=".655"
         id="stop1415" />
      <stop
         stop-color="#cc241d"
         offset=".904"
         id="stop1417" />
    </radialGradient>
    <radialGradient
       id="k"
       cx="-7919"
       cy="-8504"
       r="80.69"
       gradientTransform="translate(7974,8524)"
       gradientUnits="userSpaceOnUse">
      <stop
         stop-color="#fabd2f"
         offset=".094"
         id="stop1420" />
      <stop
         stop-color="#fabd2f"
         offset=".231"
         id="stop1422" />
      <stop
         stop-color="#fabd2f"
         offset=".4254"
         id="stop1424" />
      <stop
         stop-color="#fe8019"
         offset=".591"
         id="stop1426" />
    </radialGradient>
    <linearGradient
       id="l"
       x1="70.01"
       x2="15.27"
       y1="12.06"
       y2="66.81"
       gradientTransform="matrix(2.081 0 0 2.081 44.741 40.165)"
       gradientUnits="userSpaceOnUse">
      <stop
         stop-color="#fabd2f"
         stop-opacity=".8"
         offset=".167"
         id="stop1429" />
      <stop
         stop-color="#d79921"
         stop-opacity=".63"
         offset=".266"
         id="stop1431" />
      <stop
         stop-color="#fabd2f"
         stop-opacity=".22"
         offset=".489"
         id="stop1433" />
      <stop
         stop-color="#fabd2f"
         stop-opacity="0"
         offset=".6"
         id="stop1435" />
    </linearGradient>
    <linearGradient
       id="linearGradient80"
       x1="41.93"
       x2="50.76"
       y1="29.01"
       y2=".022"
       gradientTransform="translate(7974,8524)"
       gradientUnits="userSpaceOnUse">
      <stop
         stop-color="#d79921"
         offset="0"
         id="stop1438" />
      <stop
         stop-color="#fabd2f"
         offset=".7542"
         id="stop1440" />
    </linearGradient>
  </defs>
  <path
     d="m165 12c72 0 85 15 85 87v56c0 70-13 85-85 85h-74c-72 0-85-15-85-85v-56c0-72 13-87 85-87z"
     fill="url(#linearGradient6)"
     style="isolation:isolate"
     id="path1445" />
  <path
     d="M 91,12 C 19,12 6,27 6,99 v 56 c 0,70 13,85 85,85 h 74 c 72,0 85,-15 85,-85 V 99 C 250,27 237,12 165,12 Z m 0,4 h 74 c 68,0 80,15 80,83 v 56 c 0,66 -12,81 -80,81 H 91 C 23,236 11,221 11,155 V 99 C 11,31 23,16 91,16 Z"
     fill="url(#linearGradient31)"
     style="isolation:isolate;fill:url(#linearGradient31)"
     id="path1471" />
  <g
     id="g2084"
     transform="matrix(1.2904525,0,0,1.2808891,-422.52102,-69.697007)">
    <g
       fill="#ffffff"
       fill-opacity="1"
       id="g538"
       transform="matrix(0.60989338,0,0,0.60989336,-53.834241,58.141744)"
       style="fill:#f7f7f7;fill-opacity:1">
      <g
         id="use536-3"
         style="fill:#f5f5f5;fill-opacity:1"
         transform="matrix(1.8419861,0,0,1.8419861,711.28823,226.88556)">
        <path
           d="m 76.984375,-0.71875 c 0,-0.59375 -0.359375,-1.078125 -0.59375,-1.4375 -0.953125,-0.953125 -2.03125,-3.21875 -2.875,-5.140625 l -30.59375,-68.96875 c -1.4375,-3.359375 -3,-6.703125 -17.703125,-6.703125 -2.75,0 -4.78125,0 -4.78125,2.28125 0,1.78125 1.796875,2.03125 1.796875,2.03125 1.921875,0.234375 3.234375,0.359375 5.140625,3.21875 C 28.8125,-73.15625 41.25,-44.703125 44,-38.5 L 9.4375,-10.640625 C 8.015625,-9.5625 5.625,-7.53125 5.625,-4.296875 c 0,3.34375 2.75,5.734375 5.734375,5.734375 3.34375,0 5.734375,-2.640625 9.078125,-6.21875 0.25,-0.359375 6.109375,-6.453125 6.578125,-6.9375 4.421875,-4.546875 15.0625,-16.25 19.609375,-20.671875 l 11.46875,25.8125 c 0.359375,0.953125 1.4375,3.234375 1.796875,4.1875 1.078125,2.15625 3.34375,3.34375 7.53125,3.34375 h 5.984375 c 2.140625,0 3.578125,0 3.578125,-1.671875 z m 0,0"
           id="path2290-6"
           style="fill:#f5f5f5;fill-opacity:1" />
      </g>
      <g
         id="use536-3-7"
         style="fill:#ffffff;fill-opacity:0.63891774"
         transform="matrix(1.8419861,0,0,1.8419861,716.37057,226.88556)">
        <path
           d="m 76.984375,-0.71875 c 0,-0.59375 -0.359375,-1.078125 -0.59375,-1.4375 -0.953125,-0.953125 -2.03125,-3.21875 -2.875,-5.140625 l -30.59375,-68.96875 c -1.4375,-3.359375 -3,-6.703125 -17.703125,-6.703125 -2.75,0 -4.78125,0 -4.78125,2.28125 0,1.78125 1.796875,2.03125 1.796875,2.03125 1.921875,0.234375 3.234375,0.359375 5.140625,3.21875 C 28.8125,-73.15625 41.25,-44.703125 44,-38.5 L 9.4375,-10.640625 C 8.015625,-9.5625 5.625,-7.53125 5.625,-4.296875 c 0,3.34375 2.75,5.734375 5.734375,5.734375 3.34375,0 5.734375,-2.640625 9.078125,-6.21875 0.25,-0.359375 6.109375,-6.453125 6.578125,-6.9375 4.421875,-4.546875 15.0625,-16.25 19.609375,-20.671875 l 11.46875,25.8125 c 0.359375,0.953125 1.4375,3.234375 1.796875,4.1875 1.078125,2.15625 3.34375,3.34375 7.53125,3.34375 h 5.984375 c 2.140625,0 3.578125,0 3.578125,-1.671875 z m 0,0"
           id="path2290-6-5"
           style="fill:#ffffff;fill-opacity:0.63891774" />
      </g>
    </g>
  </g>
</svg>
